<?xml version="1.0" standalone="no"?>
<!DOCTYPE svg PUBLIC "-//W3C//DTD SVG 20010904//EN"
 "http://www.w3.org/TR/2001/REC-SVG-20010904/DTD/svg10.dtd">
<svg version="1.0" xmlns="http://www.w3.org/2000/svg"
 width="71.000000pt" height="71.000000pt" viewBox="0 0 71.000000 71.000000"
 preserveAspectRatio="xMidYMid meet">
<metadata>
Created by potrace 1.14, written by Peter Selinger 2001-2017
</metadata>
<g transform="translate(0.000000,71.000000) scale(0.100000,-0.100000)"
fill="#000000" stroke="none">
<path d="M247 675 c-88 -36 -145 -89 -186 -175 -21 -46 -26 -69 -26 -145 0
-107 21 -160 91 -235 153 -164 432 -130 547 66 3 6 -19 -2 -50 -18 -74 -37
-156 -39 -228 -3 -60 29 -73 39 -107 85 -114 155 -19 386 172 416 36 6 39 8
24 17 -10 6 -55 12 -99 13 -66 3 -90 -1 -138 -21z"/>
<path d="M631 496 c-7 -9 -17 -13 -22 -10 -5 3 -9 1 -9 -5 0 -5 5 -13 11 -16
6 -4 8 -13 6 -20 -4 -8 4 -12 24 -11 16 1 27 6 25 11 -2 6 4 19 13 29 15 18
15 19 -1 13 -11 -4 -21 0 -26 9 -8 14 -10 14 -21 0z"/>
</g>
</svg>
